# xmcd
#
# Track frame offsets:
#	150
#	15177
#	30691
#	44384
#	61496
#	77533
#	91348
#	104177
#	123643
#	143116
#	158906
#	173487
#	188895
#	203987
#
# Disc length: 2968
#
# Revision: 4
# Processed by: cddbd v1.5.1PL0 Copyright (c) Steve Scherf et al.
# Submitted via: VisiTrax 2.9.9.209 - For more info visit www.synapsa.com
# Normalized: r3:DSETVAR1
#
DISCID=b80b960e
DTITLE=Various Artist - Mr Music Country 06-04
DYEAR=2004
DGENRE=Country
TTITLE0=Brian Burns - Nothin' to say
TTITLE1=Jill Johnson - Roots and wings
TTITLE2=Zona Jones - Back in your arms
TTITLE3=Willie Nelson - Me and Paul
TTITLE4=Clay Walker - This is what matters
TTITLE5=Dolly Parton - Coat of many colors
TTITLE6=Billy Yates - Daddy's radio
TTITLE7=Brad Paisley and Alison Krauss - Whiskey lullaby
TTITLE8=James Segrest - Gettin' feelin' no pain
TTITLE9=Kenny Chesney - Being drunk's a lot like loving you
TTITLE10=Suzie Merwine - Walk me through this steps
TTITLE11=Jim McIllwain - Where the boys are bad and the girls are pretty
TTITLE12=Jessi Colter - You hung the moon (didn't you Waylon)
TTITLE13=Waylon Jennings - A couple of more years
EXTD=
EXTT0=
EXTT1=
EXTT2=
EXTT3=
EXTT4=
EXTT5=
EXTT6=
EXTT7=
EXTT8=
EXTT9=
EXTT10=
EXTT11=
EXTT12=
EXTT13=
PLAYORDER=
